<?xml version="1.0" standalone="no"?>
<!DOCTYPE svg PUBLIC "-//W3C//DTD SVG 20010904//EN"
 "http://www.w3.org/TR/2001/REC-SVG-20010904/DTD/svg10.dtd">
<svg version="1.0" xmlns="http://www.w3.org/2000/svg"
 width="173.000000pt" height="44.000000pt" viewBox="0 0 173.000000 44.000000"
 preserveAspectRatio="xMidYMid meet">
<metadata>
Created by potrace 1.10, written by Peter Selinger 2001-2011
</metadata>
<g transform="translate(0.000000,44.000000) scale(0.100000,-0.100000)"
fill="#052fd6" stroke="none">
<path d="M473 303 c-9 -3 -13 -29 -13 -79 0 -59 3 -74 15 -74 12 0 15 16 15
80 0 44 -1 80 -2 79 -2 0 -9 -3 -15 -6z"/>
<path d="M210 252 c-20 -33 -40 -51 -65 -60 -44 -16 -49 -47 -6 -37 24 5 29 2
34 -16 6 -22 7 -22 25 -6 23 21 34 22 30 3 -2 -8 2 -16 7 -18 6 -2 11 9 13 25
4 32 17 35 32 7 8 -16 17 -19 33 -14 12 3 23 8 25 9 5 5 -11 35 -19 35 -4 0
-6 -7 -3 -15 4 -8 1 -15 -6 -15 -6 0 -14 9 -17 20 -3 11 -10 20 -15 20 -6 0
-8 6 -5 14 3 8 -1 17 -9 20 -9 4 -12 11 -7 18 4 7 8 16 8 20 0 22 17 16 26
-10 13 -37 119 -124 119 -97 0 2 -25 23 -55 45 -31 23 -55 48 -55 58 0 10 -5
23 -12 30 -24 24 -48 12 -78 -36z m32 -4 c-7 -7 -12 -8 -12 -2 0 6 3 14 7 17
3 4 9 5 12 2 2 -3 -1 -11 -7 -17z m-8 -24 c20 -8 21 -38 1 -54 -12 -10 -18
-10 -30 0 -13 11 -14 10 -9 -4 7 -19 -2 -21 -19 -4 -10 9 -7 17 13 38 14 15
26 28 27 29 1 0 8 -2 17 -5z"/>
<path d="M1282 282 c-41 -27 -24 -132 22 -132 11 0 31 -3 44 -6 17 -5 23 -3
21 7 -1 8 1 31 5 52 11 49 -12 87 -52 87 -15 0 -33 -4 -40 -8z m52 -28 c22
-22 21 -62 -1 -60 -10 0 -17 -5 -15 -11 3 -19 -16 -16 -26 5 -11 21 -8 48 8
67 15 18 15 18 34 -1z"/>
<path d="M1417 272 c-20 -22 -22 -81 -4 -105 6 -9 31 -19 54 -22 46 -6 43 -9
46 72 1 22 -5 48 -12 57 -18 22 -64 20 -84 -2z m73 -52 c0 -23 -3 -28 -17 -23
-12 5 -15 2 -10 -10 4 -11 1 -17 -9 -17 -27 0 -38 57 -16 82 21 25 52 6 52
-32z"/>
<path d="M1557 272 c-20 -22 -22 -82 -4 -104 6 -9 31 -18 54 -22 35 -5 42 -3
42 11 0 10 3 33 7 51 13 66 -57 111 -99 64z m71 -49 c3 -28 1 -32 -14 -26 -14
5 -16 3 -11 -11 5 -13 2 -17 -11 -14 -10 2 -18 14 -20 31 -5 42 5 59 30 55 18
-2 24 -11 26 -35z"/>
<path d="M512 205 c0 -46 2 -55 17 -55 14 0 17 6 14 24 -5 26 12 66 27 66 6 0
10 -20 10 -45 0 -36 3 -45 18 -45 15 0 17 7 12 53 l-5 52 -46 3 -46 3 -1 -56z"/>
<path d="M643 205 c27 -73 47 -73 74 0 20 53 20 55 2 55 -14 0 -20 -10 -25
-40 -4 -22 -10 -40 -14 -40 -4 0 -10 18 -14 40 -5 30 -11 40 -25 40 -18 0 -18
-2 2 -55z"/>
<path d="M754 235 c-33 -51 26 -115 73 -79 19 14 15 16 -26 18 -13 1 -26 7
-29 15 -4 11 4 13 37 8 32 -4 41 -2 41 10 0 54 -66 74 -96 28z m56 -5 c12 -8
9 -10 -13 -10 -16 0 -26 4 -22 10 8 12 16 12 35 0z"/>
<path d="M871 242 c-13 -24 -2 -39 32 -47 37 -10 35 -29 -3 -22 -39 8 -48 -8
-10 -21 24 -9 33 -7 51 7 29 23 19 49 -21 58 -33 6 -31 18 3 18 11 0 22 6 24
13 8 21 -65 15 -76 -6z"/>
<path d="M990 240 c-25 -25 -25 -41 -2 -70 20 -24 66 -30 85 -11 15 15 -12 35
-28 21 -18 -15 -48 12 -39 34 5 12 14 16 30 13 28 -5 49 7 40 22 -12 18 -64
13 -86 -9z"/>
<path d="M1107 242 c-31 -34 -20 -74 26 -91 24 -9 31 -8 53 14 25 26 26 52 2
83 -15 18 -63 15 -81 -6z m73 -36 c0 -8 -7 -19 -15 -26 -28 -23 -60 21 -33 48
14 14 48 -2 48 -22z"/>
</g>
</svg>
