<?xml version="1.0" standalone="no"?>
<!DOCTYPE svg PUBLIC "-//W3C//DTD SVG 20010904//EN"
 "http://www.w3.org/TR/2001/REC-SVG-20010904/DTD/svg10.dtd">
<svg version="1.0" xmlns="http://www.w3.org/2000/svg"
 width="99.000000pt" height="83.000000pt" viewBox="0 0 99.000000 83.000000"
 preserveAspectRatio="xMidYMid meet">
<metadata>
Created by potrace 1.10, written by Peter Selinger 2001-2011
</metadata>
<g transform="translate(0.000000,83.000000) scale(0.100000,-0.100000)"
fill="#485df9" stroke="none">
<path d="M75 801 c-11 -5 -29 -19 -40 -31 -19 -21 -20 -36 -20 -361 l0 -339
28 -27 27 -28 420 0 420 0 27 28 28 27 0 340 0 340 -28 27 -27 28 -408 2
c-224 1 -416 -2 -427 -6z m238 -162 c32 -14 47 -49 47 -104 l0 -45 -50 0 -50
0 0 34 c0 19 -4 38 -10 41 -6 4 -10 -10 -10 -33 0 -37 4 -42 45 -66 65 -39 75
-58 75 -149 0 -69 -3 -81 -25 -102 -20 -21 -34 -25 -79 -25 -98 0 -126 27
-126 125 l0 55 55 0 55 0 0 -51 c0 -31 4 -48 10 -44 6 3 10 24 10 45 0 35 -5
42 -42 68 -65 45 -80 67 -86 122 -5 56 10 104 42 125 24 18 105 20 139 4z
m272 -24 c23 -22 25 -32 25 -115 0 -124 -21 -159 -92 -160 l-38 0 0 -70 0 -70
-50 0 -50 0 0 220 0 220 90 0 c83 0 93 -2 115 -25z m135 -22 l13 -48 10 48 9
47 55 0 c45 0 54 -3 49 -15 -30 -80 -76 -291 -76 -353 l0 -72 -50 0 -50 0 0
73 c0 51 -11 114 -39 220 l-38 147 52 0 53 0 12 -47z"/>
<path d="M480 490 c0 -53 3 -71 13 -67 8 2 12 25 12 67 0 42 -4 65 -12 68 -10
3 -13 -15 -13 -68z"/>
</g>
</svg>
